<svg xmlns="http://www.w3.org/2000/svg"
     width="24" height="24"
     fill="none" stroke-linecap="round" stroke-linejoin="round"
     role="img" aria-label="Consultar cubo de dados (satélite)">
  <title>Consultar cubo de dados (satélite)</title>

  <!-- CUBO DE TRÁS (verde) -->
  <g stroke="#009739" stroke-width="1.1" opacity="0.8" transform="translate(0.5,1)">
    <path d="M7 3 L11 5.5 L7 8 L3 5.5 Z"/>
    <path d="M3 5.5 L7 8 L7 11 L3 8.5 Z"/>
    <path d="M11 5.5 L7 8 L7 11 L11 8.5 Z"/>
  </g>

  <!-- CUBO DO MEIO (amarelo) -->
  <g stroke="#FFCC00" stroke-width="1.1" opacity="0.85" transform="translate(0.5,1)">
    <path d="M9 5 L13 7.5 L9 10 L5 7.5 Z"/>
    <path d="M5 7.5 L9 10 L9 15 L5 12.5 Z"/>
    <path d="M13 7.5 L9 10 L9 15 L13 12.5 Z"/>
  </g>

  <!-- CUBO FRONTAL (azul) -->
  <g stroke="#0033A0" stroke-width="1.1" opacity="0.9" transform="translate(0.5,1)">
    <path d="M11 7 L15 9.5 L11 12 L7 9.5 Z"/>
    <path d="M7 9.5 L11 12 L11 17 L7 14.5 Z"/>
    <path d="M15 9.5 L11 12 L11 17 L15 14.5 Z"/>
  </g>

  <!-- LUPA (mesma cor original) -->
  <g stroke="currentColor" stroke-width="2">
    <circle cx="17.5" cy="16.5" r="5"/>
    <path d="M20.8 19.8 L23 22"/>
  </g>

  <!-- GRADE DENTRO DA LENTE (mesma cor original) -->
  <defs>
    <clipPath id="lensClip">
      <circle cx="17.5" cy="16.5" r="5"/>
    </clipPath>
  </defs>
  <g clip-path="url(#lensClip)" stroke="currentColor" stroke-width="1.4">
    <path d="M17.5 11.5 V 21.5"/>
    <path d="M12.5 16.5 H 22.5"/>
  </g>
</svg>
