<svg xmlns="http://www.w3.org/2000/svg"
     width="24" height="24"
     fill="none" stroke-linecap="round" stroke-linejoin="round"
     role="img" aria-label="Consultar cubo de dados (satélite)">
  <title>Consultar cubo de dados (satélite)</title>

  <!-- CUBOS DE DADOS (cinza claro + opacidade, ampliados) -->
  <g stroke="#888" stroke-width="1.1" opacity="0.7" transform="translate(0.5,1)">
    <!-- cubo principal -->
    <path d="M9 5 L13 7.5 L9 10 L5 7.5 Z"/>
    <path d="M5 7.5 L9 10 L9 15 L5 12.5 Z"/>
    <path d="M13 7.5 L9 10 L9 15 L13 12.5 Z"/>
    <!-- cubo de trás -->
    <path d="M7 3 L11 5.5 L7 8 L3 5.5 Z"/>
    <path d="M3 5.5 L7 8 L7 11 L3 8.5 Z"/>
    <path d="M11 5.5 L7 8 L7 11 L11 8.5 Z"/>
  </g>

  <!-- LUPA (maior e encostando mais nos cubos) -->
  <g stroke="currentColor" stroke-width="2">
    <circle cx="17.5" cy="16.5" r="5"/>
    <path d="M20.8 19.8 L23 22"/>
  </g>

  <!-- GRADE DENTRO DA LENTE -->
  <defs>
    <clipPath id="lensClip">
      <circle cx="17.5" cy="16.5" r="5"/>
    </clipPath>
  </defs>
  <g clip-path="url(#lensClip)" stroke="currentColor" stroke-width="1.4">
    <path d="M17.5 11.5 V 21.5"/>
    <path d="M12.5 16.5 H 22.5"/>
  </g>
</svg>
